<svg xmlns="http://www.w3.org/2000/svg" viewBox="0 0 37 27" fill="none" stroke="currentColor">
  <path fill="currentColor" stroke="currentColor" stroke-width="0.75" d="M1.504 2.01c2.307.168 4.421.168 6.328.073.644-.032.648-1.04 0-1.008a52.204 52.204 0 0 1-6.328-.074C1.232.983 1 1.247 1 1.507c0 .288.232.483.504.504Z"/>
  <path fill="currentColor" stroke="currentColor" stroke-width="0.75" d="M14.592 17.343a228.225 228.225 0 0 0-4.82-11.38c-.482-1.058-.858-2.92-1.356-3.97-.117-.247-.47-.311-.689-.182-.252.147-.298.443-.181.689 1.775 3.74 3.288 8.239 4.795 11.919.436 1.06.861 2.124 1.28 3.192.099.254.339.43.62.352.243-.066.452-.364.354-.62h-.003Z"/>
  <path fill="currentColor" stroke="currentColor" stroke-width="0.75" d="M31.536 17.403a144.677 144.677 0 0 0-17.083-.493c-.646.02-.648 1.027 0 1.007a144.845 144.845 0 0 1 17.083.494c.272.024.504-.248.504-.504 0-.292-.232-.48-.504-.504Z"/>
  <path fill="currentColor" stroke="currentColor" stroke-width="0.75" d="M31.942 18.008a73.765 73.765 0 0 0 3.296-9.202c.252-.888.488-1.781.706-2.68.153-.63-.819-.899-.972-.268A72.734 72.734 0 0 1 31.073 17.5c-.109.25-.075.54.181.69.214.124.58.07.69-.182h-.002Z"/>
  <path fill="currentColor" stroke="currentColor" stroke-width="0.75" d="M9.428 5.824c5.145.52 16.547-.019 21.69-.118 1.454-.03 2.691.17 4.14.3C36.566 6.5 36.12 5 35.305 5c-5.148-.457-10.066.186-15.211.251-1.454.02-9.173-.287-10.619-.433-.646-.065-.691.942-.047 1.006Z"/>
  <path fill="currentColor" stroke="none" d="M20.159 19.748c-.212-.264-.591-.316-.93-.294a3.122 3.122 0 0 0-1.585.56c-.178.123-.367.274-.58.244-.156-.022-.281-.137-.396-.246-.389-.363-.816-.71-1.328-.852-.51-.143-1.124-.037-1.45.383-.249.316-.293.757-.202 1.15.09.393.3.746.518 1.086.22.339.451.671.695.996.29.387.606.766 1.003 1.044.397.276.891.445 1.369.369l.546-.297a32.59 32.59 0 0 0 2.078-2.686c.15-.22.302-.443.374-.7.07-.255.053-.55-.113-.757Zm-1.022 1.493c-.514.675-1.068 1.324-1.695 1.895l-.296-.07c-.02-.182-.214-.295-.393-.321-.18-.029-.367 0-.544-.045-.3-.076-.508-.344-.69-.596l-.487-.671c-.216-.299-.441-.617-.464-.986-.022-.366.256-.775.623-.75.222.017.401.18.554.341.387.415.714.889.961 1.4.069.14.137.291.268.376.131.084.345.062.4-.085.066-.183-.152-.401-.047-.566a.319.319 0 0 1 .103-.091c.437-.298.875-.595 1.312-.89.076-.053.155-.107.248-.124.254-.044.473.234.467.492-.006.258-.163.486-.32.691Z"/>
  <path fill="currentColor" stroke="none" d="M17.037 24.306c-.393 0-.808-.139-1.189-.405-.421-.294-.756-.705-1.026-1.066-.242-.32-.477-.659-.699-1.001-.218-.339-.435-.706-.532-1.119-.107-.461-.024-.923.22-1.235.377-.486 1.054-.558 1.557-.417.54.151.978.51 1.37.877.122.114.222.203.341.22.155.021.31-.087.46-.194l.048-.035a3.26 3.26 0 0 1 1.637-.578c.465-.03.816.085 1.013.333.17.213.218.53.131.848-.078.28-.244.518-.389.73a32.668 32.668 0 0 1-2.084 2.694l-.028.022-.578.306a1.5 1.5 0 0 1-.252.02Z"/>
  <path fill="currentColor" stroke="currentColor" stroke-miterlimit="10" stroke-width="0.5" d="M30.194 20.411c-.57-.28-1.263-.006-1.767.38-.252.194-.528.43-.84.378-.26-.043-.442-.27-.623-.464a2.374 2.374 0 0 0-.85-.598 1.468 1.468 0 0 0-1.276.12 1.453 1.453 0 0 0-.675 1.087c-.045.445.123.884.322 1.285.476.954 1.203 1.832 2.187 2.241.241.101.546.248.515.508-.012.117-.096.21-.17.303-.124.149-.232.326-.226.52.004.19.17.382.362.36l.188-.227a14.227 14.227 0 0 0 2.78-2.86c.343-.468.666-.976.742-1.55.079-.574-.15-1.225-.669-1.483Z"/>
</svg>
